HIERARCHY
ROOT Hips
{
	OFFSET 0.000000 0.000000 0.000000
	CHANNELS 6 Xposition Yposition Zposition Xrotation Yrotation Zrotation
	JOINT LeftUpLeg_virtual
	{
		OFFSET 0.000000 0.000000 0.000000
		CHANNELS 3 Xrotation Yrotation Zrotation
		JOINT LeftUpLeg
		{
			OFFSET 13.026900 -6.336304 -1.092800
			CHANNELS 3 Xrotation Yrotation Zrotation
			JOINT LeftLeg
			{
				OFFSET 0.524474 -46.096886 9.782700
				CHANNELS 3 Xrotation Yrotation Zrotation
				JOINT LeftFoot
				{
					OFFSET -0.524474 -53.427422 -12.948200
					CHANNELS 3 Xrotation Yrotation Zrotation
					JOINT LeftToeBase
					{
						OFFSET 0.192200 -14.009700 16.364100
						CHANNELS 3 Xrotation Yrotation Zrotation
						JOINT LeftToe_End
						{
							OFFSET -1.784700 -0.561700 9.474800
							CHANNELS 3 Xrotation Yrotation Zrotation
							End Site
							{
								OFFSET 0 0 0
							}
						}
					}
				}
			}
		}
	}
	JOINT RightUpLeg_virtual
	{
		OFFSET 0.000000 0.000000 0.000000
		CHANNELS 3 Xrotation Yrotation Zrotation
		JOINT RightUpLeg
		{
			OFFSET -12.883000 -6.336304 -1.092800
			CHANNELS 3 Xrotation Yrotation Zrotation
			JOINT RightLeg
			{
				OFFSET -0.524587 -46.096825 9.782800
				CHANNELS 3 Xrotation Yrotation Zrotation
				JOINT RightFoot
				{
					OFFSET 0.524587 -53.427383 -12.948300
					CHANNELS 3 Xrotation Yrotation Zrotation
					JOINT RightToeBase
					{
						OFFSET -0.192200 -14.009700 16.364100
						CHANNELS 3 Xrotation Yrotation Zrotation
						JOINT RightToe_End
						{
							OFFSET 1.784700 -0.561700 9.474800
							CHANNELS 3 Xrotation Yrotation Zrotation
							End Site
							{
								OFFSET 0 0 0
							}
						}
					}
				}
			}
		}
	}
	JOINT Spine_virtual
	{
		OFFSET 0.000000 0.000000 0.000000
		CHANNELS 3 Xrotation Yrotation Zrotation
		JOINT Spine
		{
			OFFSET 0.072000 7.257294 -0.789700
			CHANNELS 3 Xrotation Yrotation Zrotation
			JOINT Spine1
			{
				OFFSET 0.000000 12.508769 -0.658067
				CHANNELS 3 Xrotation Yrotation Zrotation
				JOINT Spine1_split
				{
					OFFSET 0.000000 12.508769 -0.658067
					CHANNELS 3 Xrotation Yrotation Zrotation
					JOINT Spine2
					{
						OFFSET 0.000000 12.508769 -0.658067
						CHANNELS 3 Xrotation Yrotation Zrotation
						JOINT Neck_virtual
						{
							OFFSET 0.000000 0.000000 0.000000
							CHANNELS 3 Xrotation Yrotation Zrotation
							JOINT Neck
							{
								OFFSET 0.000000 14.033295 7.520400
								CHANNELS 3 Xrotation Yrotation Zrotation
								JOINT Head
								{
									OFFSET 0.000000 8.198502 5.703100
									CHANNELS 3 Xrotation Yrotation Zrotation
									JOINT HeadTop_End
									{
										OFFSET 0.000000 17.760803 13.332701
										CHANNELS 3 Xrotation Yrotation Zrotation
										End Site
										{
											OFFSET 0 0 0
										}
									}
								}
							}
						}
						JOINT LeftShoulder_virtual
						{
							OFFSET 0.000000 0.000000 0.000000
							CHANNELS 3 Xrotation Yrotation Zrotation
							JOINT LeftShoulder
							{
								OFFSET 6.292450 5.785301 -0.669000
								CHANNELS 3 Xrotation Yrotation Zrotation
								JOINT LeftShoulder_split
								{
									OFFSET 6.292450 5.785301 -0.669000
									CHANNELS 3 Xrotation Yrotation Zrotation
									JOINT LeftArm
									{
										OFFSET 13.907140 -6.093903 1.965100
										CHANNELS 3 Xrotation Yrotation Zrotation
										JOINT LeftForeArm
										{
											OFFSET 34.140198 0.000000 0.000000
											CHANNELS 3 Xrotation Yrotation Zrotation
											JOINT LeftHand
											{
												OFFSET 40.960209 0.000000 0.000000
												CHANNELS 3 Xrotation Yrotation Zrotation
												End Site
												{
													OFFSET 0 0 0
												}
											}
										}
									}
								}
							}
						}
						JOINT RightShoulder_virtual
						{
							OFFSET 0.000000 0.000000 0.000000
							CHANNELS 3 Xrotation Yrotation Zrotation
							JOINT RightShoulder
							{
								OFFSET -6.292450 5.785301 -0.669000
								CHANNELS 3 Xrotation Yrotation Zrotation
								JOINT RightShoulder_split
								{
									OFFSET -6.292450 5.785301 -0.669000
									CHANNELS 3 Xrotation Yrotation Zrotation
									JOINT RightArm
									{
										OFFSET -13.907140 -6.093903 1.965100
										CHANNELS 3 Xrotation Yrotation Zrotation
										JOINT RightForeArm
										{
											OFFSET -34.140198 0.000000 0.000000
											CHANNELS 3 Xrotation Yrotation Zrotation
											JOINT RightHand
											{
												OFFSET -40.960209 0.000000 0.000000
												CHANNELS 3 Xrotation Yrotation Zrotation
												End Site
												{
													OFFSET 0 0 0
												}
											}
										}
									}
								}
							}
						}
					}
				}
			}
		}
	}
}
MOTION
Frames: 8
Frame Time: 0.03333333
20.512264 94.896194 -20.989138 0.000000 0.000000 0.000000 55.030353 -4.759970 15.133573 -87.413574 4.485724 14.270503 49.340805 -3.806595 1.047992 -5.552857 17.704354 -13.627797 -5.008167 -0.858423 -1.835907 0.000000 0.000000 0.000000 56.463166 -8.585093 16.200635 -46.929079 -2.014890 -12.757024 54.009058 8.665616 -3.721816 -12.732690 -23.930334 9.397945 -27.395411 5.548111 0.659751 0.000000 0.000000 0.000000 58.946472 -3.333634 15.329682 13.620738 0.907053 -0.077870 11.561576 0.178913 -2.973723 0.183133 0.162098 -0.011245 0.000000 0.000000 0.000000 19.311793 0.873954 -3.522253 -18.194033 -2.268767 0.439163 -71.008586 2.705149 19.748421 0.000000 0.000000 0.000000 18.343013 0.495517 -3.728825 8.348539 -3.659539 3.832707 0.135246 -3.994363 -1.246028 -29.392483 -65.653732 -14.433771 -16.702538 -11.264862 -17.135133 0.000000 0.000000 0.000000 20.975921 1.221902 -2.815277 10.966010 31.804499 -13.586933 -6.281274 -1.158548 5.333568 -49.481705 25.901013 19.580860 -15.150768 27.592149 14.239797 0.000000 0.000000 0.000000 
19.624275 97.297531 -20.066347 0.000000 0.000000 0.000000 52.978847 -4.912574 14.806836 -81.845727 4.917130 13.440771 45.904492 -4.020907 0.901882 -6.936163 18.216217 -12.633624 -2.953812 -0.798183 -1.898001 0.000000 0.000000 0.000000 54.120739 -8.512899 15.603741 -50.725059 -0.916924 -12.644792 57.606512 8.110191 -3.561048 -14.962484 -21.736713 6.294516 -24.799585 5.189407 0.683887 0.000000 0.000000 0.000000 56.529005 -3.483742 14.755637 13.433345 0.677397 0.240517 11.334741 0.207889 -2.708774 0.185139 0.187000 -0.001117 0.000000 0.000000 0.000000 19.387634 0.911942 -3.267396 -18.418626 -2.485965 0.504572 -69.044497 3.041665 18.943369 0.000000 0.000000 0.000000 18.189842 0.567745 -3.542594 8.153259 -4.214974 2.225483 0.153005 -4.047379 -0.904466 -28.729196 -63.389066 -18.314338 -16.186558 -11.343620 -16.288055 0.000000 0.000000 0.000000 20.991856 1.273717 -2.674065 10.201093 31.432715 -12.536573 -6.730447 -1.065530 5.198632 -47.391834 23.288816 23.319932 -14.531801 26.786675 13.317776 0.000000 0.000000 0.000000 
18.801125 99.467003 -19.178003 0.000000 0.000000 0.000000 50.583234 -5.298396 14.214898 -76.319653 5.208252 12.784918 42.825450 -4.274330 0.645426 -8.315054 18.659469 -11.953271 -0.890875 -0.731497 -1.853165 0.000000 0.000000 0.000000 51.614899 -8.825410 14.924192 -53.797951 -0.381850 -12.807416 58.243386 7.686008 -3.215719 -15.126451 -19.796076 5.151762 -22.243606 4.820312 0.524869 0.000000 0.000000 0.000000 53.837201 -3.788994 13.982229 13.180838 0.557886 0.655380 11.158918 0.233580 -2.433207 0.216288 0.217210 0.003640 0.000000 0.000000 0.000000 19.371492 0.952363 -3.018882 -18.549838 -2.709925 0.526878 -66.763590 3.261762 18.011279 0.000000 0.000000 0.000000 18.016690 0.630089 -3.349466 7.925961 -4.764274 0.620251 0.133466 -4.070729 -0.544148 -28.252024 -61.171277 -22.584712 -15.420784 -10.806718 -15.205582 0.000000 0.000000 0.000000 20.946425 1.315774 -2.533515 9.449528 30.944732 -11.505806 -7.161041 -0.768470 5.083771 -44.933110 20.593485 26.521654 -14.109978 25.949243 12.631910 0.000000 0.000000 0.000000 
18.073755 101.424355 -18.282019 0.000000 0.000000 0.000000 48.006651 -5.819214 13.308198 -70.802144 5.455889 12.314685 39.820952 -4.520099 0.323733 -9.531162 18.992890 -11.395967 0.740088 -0.707449 -1.604181 0.000000 0.000000 0.000000 48.959769 -9.406654 13.996889 -55.600158 -0.417074 -13.011224 55.620570 7.310155 -2.749937 -14.560013 -18.135409 5.200683 -18.620812 4.554835 0.090676 0.000000 0.000000 0.000000 50.938301 -4.239890 13.014044 12.843594 0.515820 1.159712 10.998658 0.240893 -2.140447 0.245960 0.245211 0.003746 0.000000 0.000000 0.000000 19.246073 0.983017 -2.768094 -18.544011 -2.922243 0.498462 -64.172400 3.319159 16.995269 0.000000 0.000000 0.000000 17.792183 0.670770 -3.130869 7.709918 -5.312662 -0.830382 0.123947 -4.125065 -0.236209 -27.825456 -59.017636 -26.872403 -14.604782 -9.962621 -14.057491 0.000000 0.000000 0.000000 20.812454 1.335497 -2.369475 8.714001 30.393539 -10.455760 -7.675533 -0.408847 5.068091 -42.178775 17.975258 29.137829 -13.856744 25.057982 12.132507 0.000000 0.000000 0.000000 
17.379461 103.235451 -17.413443 0.000000 0.000000 0.000000 45.360987 -6.587051 12.221325 -65.311894 5.654580 11.985788 36.769726 -4.740718 0.011877 -10.425248 19.266102 -10.899605 1.905444 -0.718726 -1.269412 0.000000 0.000000 0.000000 46.243902 -9.985255 12.780066 -55.885721 -0.972240 -13.129794 50.554134 6.723158 -2.218178 -14.105007 -16.834977 5.586787 -13.955953 4.436725 -0.574478 0.000000 0.000000 0.000000 47.917875 -4.719727 11.868659 12.368811 0.470864 1.718030 10.825075 0.203988 -1.838921 0.252064 0.239173 0.002171 0.000000 0.000000 0.000000 19.023214 0.985720 -2.516216 -18.359934 -3.090974 0.411202 -61.243103 3.171282 15.911050 0.000000 0.000000 0.000000 17.490632 0.676005 -2.898233 7.543692 -5.925775 -1.993895 -0.089665 -4.115851 -0.150557 -27.178330 -56.899769 -30.728734 -13.921913 -9.197725 -13.001242 0.000000 0.000000 0.000000 20.577777 1.317078 -2.179893 7.991636 29.777125 -9.346206 -8.206120 -0.121362 5.043796 -39.319159 15.550821 31.299120 -13.745915 24.175936 11.762106 0.000000 0.000000 0.000000 
16.615753 104.954071 -16.606630 0.000000 0.000000 0.000000 42.656703 -7.528363 11.095599 -59.828933 5.860507 11.771970 33.672976 -4.881044 -0.263170 -11.034189 19.537167 -10.387492 2.629716 -0.766643 -0.959511 0.000000 0.000000 0.000000 43.433849 -10.435046 11.463737 -55.119278 -1.677121 -13.086623 44.291885 5.982461 -1.812568 -13.406543 -15.958442 6.526378 -9.395024 4.431725 -1.371811 0.000000 0.000000 0.000000 44.860341 -5.093928 10.638447 11.712519 0.363815 2.250461 10.626278 0.109933 -1.545691 0.229340 0.217385 -0.000474 0.000000 0.000000 0.000000 18.730390 0.951409 -2.273074 -17.967581 -3.195381 0.253900 -58.023611 2.835078 14.802178 0.000000 0.000000 0.000000 17.120404 0.640250 -2.663230 7.445695 -6.637273 -2.807834 -0.381200 -4.112678 -0.265160 -26.154125 -54.754078 -33.861066 -13.425657 -8.726609 -12.098400 0.000000 0.000000 0.000000 20.247927 1.251338 -1.971720 7.288031 29.071730 -8.224873 -8.675677 0.189091 5.059910 -36.532640 13.435961 33.104834 -13.728861 23.423273 11.469935 0.000000 0.000000 0.000000 
15.757957 106.583847 -15.897406 0.000000 0.000000 0.000000 39.909055 -8.491944 10.067999 -54.430177 6.163919 11.619541 30.717625 -4.915332 -0.467760 -11.369255 19.848041 -9.882493 3.098924 -0.854915 -0.784203 0.000000 0.000000 0.000000 40.535404 -10.661545 10.223377 -53.886713 -2.112167 -12.986080 38.055963 5.569673 -1.686560 -11.766523 -15.142289 8.722994 -6.398796 4.506342 -2.132916 0.000000 0.000000 0.000000 41.781876 -5.217551 9.371587 10.859265 0.175404 2.698101 10.401850 -0.030119 -1.277310 0.210642 0.177108 -0.006228 0.000000 0.000000 0.000000 18.400115 0.882588 -2.049411 -17.370143 -3.227997 0.030429 -54.601738 2.308238 13.702657 0.000000 0.000000 0.000000 16.709914 0.563994 -2.451446 7.413671 -7.468713 -3.315756 -0.728869 -4.099870 -0.561968 -24.825786 -52.620112 -36.288515 -13.086492 -8.584239 -11.345912 0.000000 0.000000 0.000000 19.866387 1.142761 -1.761029 6.626183 28.287614 -7.132593 -9.071584 0.486944 5.109762 -33.939674 11.747621 34.728192 -13.742565 22.901580 11.208675 0.000000 0.000000 0.000000 
14.869397 108.076691 -15.183847 0.000000 0.000000 0.000000 37.150102 -9.366355 9.256036 -49.438767 6.576043 11.520008 28.151060 -4.961642 -0.555035 -11.239922 20.098064 -9.726465 3.286941 -0.967959 -0.738192 0.000000 0.000000 0.000000 37.608135 -10.752981 9.191346 -52.405501 -2.208590 -12.823602 32.548187 5.590752 -1.863392 -9.299007 -14.281334 12.018046 -5.350447 4.615651 -2.675753 0.000000 0.000000 0.000000 38.674901 -5.077108 8.227640 9.819400 -0.097122 2.992718 10.168852 -0.207230 -1.046767 0.187102 0.126562 -0.009641 0.000000 0.000000 0.000000 18.053160 0.787699 -1.856632 -16.594587 -3.196072 -0.242714 -51.097417 1.662610 12.626712 0.000000 0.000000 0.000000 16.280072 0.457878 -2.270210 7.416939 -8.392892 -3.592120 -1.032713 -4.066666 -1.006633 -23.249527 -50.548140 -38.065150 -12.858802 -8.725487 -10.705112 0.000000 0.000000 0.000000 19.464258 1.003126 -1.563380 6.002246 27.447653 -6.069079 -9.316231 0.833662 5.166084 -31.634834 10.527033 36.282272 -13.729836 22.615692 10.942560 0.000000 0.000000 0.000000 
